# xmcd CD database file
#
# Track frame offsets:
#	151
#	16506
#	31433
#	46666
#	63078
#	75026
#	89386
#	107521
#	120755
#	135500
#	151462
#
# Disc length: 2220 seconds
#
# Revision: 0
# Processed by: cddbd v1.4PL0 Copyright (c) Steve Scherf et al.
# Submitted via: CDex 1.40Release
#
DISCID=6608aa0b
DTITLE=Shelly Bush - Girl In A Hurry
DYEAR=1900
DGENRE=Country
TTITLE0=Girl In A Hurry
TTITLE1=Don't Fall In Love
TTITLE2=God And Everybody
TTITLE3=What She Wants
TTITLE4=Room To Dance
TTITLE5=You Got To Me
TTITLE6=You Couldn't Be More Wrong
TTITLE7=When The Sap Comes Up
TTITLE8=Between Leavin' And Gone
TTITLE9=Love Me
TTITLE10=Fallin'
EXTD=ID3G: 2
EXTT0=
EXTT1=
EXTT2=
EXTT3=
EXTT4=
EXTT5=
EXTT6=
EXTT7=
EXTT8=
EXTT9=
EXTT10=
PLAYORDER=
